<svg width="160" height="29" viewBox="0 0 160 29" fill="none" xmlns="http://www.w3.org/2000/svg">
<g clip-path="url(#clip0_1818_14048)">
<path d="M3.17848 10.5182C2.43814 13.6449 3.43848 18.1304 7.41193 18.3276C9.99136 18.4557 11.6204 16.8511 11.8584 14.3059C11.8633 14.2558 11.8907 14.2308 11.9406 14.2308H13.696C13.7528 14.2308 13.7792 14.2593 13.7753 14.3162C13.5902 16.6848 12.3196 18.7854 10.0222 19.5921C6.98154 20.6594 3.16673 19.5907 1.81385 16.4625C-0.314623 11.5384 1.7169 4.78447 8.0847 5.00528C10.8815 5.10244 13.2333 6.67756 13.6505 9.59376C13.6573 9.64283 13.6363 9.66736 13.5873 9.66736H11.7923C11.7443 9.66736 11.7149 9.64381 11.7041 9.5967C11.3575 8.0726 10.4707 7.13587 9.04391 6.7865C6.05317 6.05487 3.84684 7.69919 3.17848 10.5182Z" fill="#707070"/>
<path d="M76.7385 5.32324L75.111 5.32609C75.0842 5.32613 75.0625 5.34792 75.0626 5.37475L75.0661 7.41211C75.0662 7.43894 75.0879 7.46065 75.1147 7.4606L76.7423 7.45775C76.769 7.45771 76.7907 7.43592 76.7906 7.40909L76.7871 5.37173C76.7871 5.3449 76.7653 5.32319 76.7385 5.32324Z" fill="#707070"/>
<path d="M106.574 13.14V19.5906C106.574 19.6039 106.568 19.6167 106.559 19.626C106.55 19.6354 106.537 19.6407 106.524 19.6407H104.714C104.701 19.6407 104.688 19.6354 104.679 19.626C104.669 19.6167 104.664 19.6039 104.664 19.5906V5.37476C104.664 5.36148 104.669 5.34875 104.679 5.33937C104.688 5.32998 104.701 5.32471 104.714 5.32471H106.524C106.537 5.32471 106.55 5.32998 106.559 5.33937C106.568 5.34875 106.574 5.36148 106.574 5.37476V11.4206C106.574 11.4339 106.579 11.4466 106.588 11.456C106.598 11.4654 106.61 11.4706 106.624 11.4706H113.979C113.992 11.4706 114.004 11.4654 114.014 11.456C114.023 11.4466 114.028 11.4339 114.028 11.4206V5.37476C114.028 5.36148 114.034 5.34875 114.043 5.33937C114.052 5.32998 114.065 5.32471 114.078 5.32471H115.925C115.938 5.32471 115.951 5.32998 115.96 5.33937C115.97 5.34875 115.975 5.36148 115.975 5.37476V19.5906C115.975 19.6039 115.97 19.6167 115.96 19.626C115.951 19.6354 115.938 19.6407 115.925 19.6407H114.078C114.065 19.6407 114.052 19.6354 114.043 19.626C114.034 19.6167 114.028 19.6039 114.028 19.5906V13.14C114.028 13.1267 114.023 13.114 114.014 13.1046C114.004 13.0952 113.992 13.0899 113.979 13.0899H106.624C106.617 13.0899 106.611 13.0912 106.604 13.0937C106.598 13.0963 106.593 13.0999 106.588 13.1046C106.584 13.1092 106.58 13.1148 106.577 13.1208C106.575 13.1269 106.574 13.1334 106.574 13.14Z" fill="#707070"/>
<path d="M19.4899 9.02565C22.5878 8.84753 24.6443 10.8481 24.8441 13.9012C25.0454 16.9572 23.5999 19.6129 20.2757 19.8454C16.3625 20.1178 14.4735 17.0617 14.9039 13.5052C15.2197 10.904 16.909 9.17433 19.4899 9.02565ZM19.2078 18.2409C22.9374 19.0402 24.0127 13.8879 22.1795 11.6621C20.878 10.0811 18.4132 10.2225 17.3232 11.9477C16.0364 13.9821 16.5432 17.6697 19.2078 18.2409Z" fill="#707070"/>
<path d="M28.0638 10.6505C28.9001 9.53071 30.0591 8.99438 31.5407 9.04149C32.7737 9.08074 33.6442 9.60382 34.1525 10.6107C34.1731 10.6519 34.198 10.6549 34.2274 10.6196C35.429 9.15827 36.9743 8.69064 38.8633 9.21666C39.7261 9.4571 40.3068 9.94044 40.6055 10.6667C40.7553 11.0308 40.8312 11.7246 40.8332 12.7482C40.839 15.0191 40.839 17.2915 40.8332 19.5654C40.8332 19.6154 40.8087 19.6405 40.7597 19.6405H39.1865C39.1346 19.6405 39.1087 19.6145 39.1087 19.5624C39.1145 17.1963 39.1106 14.8312 39.0969 12.467C39.0896 11.042 38.1465 10.4665 36.8186 10.5783C35.7247 10.6696 35.002 11.203 34.6505 12.1785C34.5094 12.5691 34.4404 13.2055 34.4433 14.0878C34.4502 15.9171 34.4502 17.7434 34.4433 19.5669C34.4433 19.6159 34.4189 19.6405 34.3699 19.6405H32.7967C32.7458 19.6405 32.7203 19.615 32.7203 19.5639C32.7213 17.1841 32.7198 14.8052 32.7159 12.4273C32.7139 11.5568 32.38 10.9856 31.7141 10.7138C30.3612 10.1617 28.785 10.9861 28.2841 12.3434C28.1519 12.7016 28.0873 13.233 28.0902 13.9376C28.0971 15.8131 28.0971 17.6895 28.0902 19.5669C28.0902 19.6159 28.0658 19.6405 28.0168 19.6405H26.4406C26.3917 19.6405 26.3672 19.6159 26.3672 19.5669V9.3359C26.3672 9.28683 26.3917 9.2623 26.4406 9.2623H27.9096C27.9585 9.2623 27.983 9.28683 27.983 9.3359V10.6225C27.983 10.7138 28.0099 10.7231 28.0638 10.6505Z" fill="#707070"/>
<path d="M44.6244 18.3541V23.5049C44.6244 23.5539 44.5999 23.5785 44.551 23.5785H42.9719C42.9229 23.5785 42.8984 23.5539 42.8984 23.5049V9.33609C42.8984 9.28702 42.9229 9.26249 42.9719 9.26249H44.551C44.5999 9.26249 44.6244 9.28702 44.6244 9.33609L44.623 10.5491C44.623 10.6354 44.6455 10.6413 44.6905 10.5668C45.0372 9.99362 45.4578 9.60941 45.9523 9.41411C47.8634 8.65599 50.2504 8.97101 51.5519 10.6757C52.6639 12.1301 52.9209 14.2028 52.5625 15.9663C51.9779 18.8516 49.6658 20.415 46.6765 19.6878C45.8911 19.4964 45.2277 19.045 44.6861 18.3335C44.645 18.2795 44.6244 18.2863 44.6244 18.3541ZM48.8182 10.7596C43.9105 9.15355 43.0923 17.4885 47.1201 18.2584C48.8491 18.5881 50.1946 17.7535 50.6529 16.0385C51.1318 14.244 50.8732 11.4323 48.8182 10.7596Z" fill="#707070"/>
<path d="M60.5808 18.3996C59.0785 19.8393 57.3315 20.2387 55.3396 19.5979C53.7209 19.0768 53.2464 17.1454 53.7987 15.7013C54.5743 13.6757 57.9161 13.7125 59.5525 13.3342C60.3536 13.1487 60.6757 12.6624 60.5191 11.8753C60.2165 10.3517 58.1776 10.4312 57.0876 10.7286C56.2327 10.9626 55.7656 11.5574 55.7392 12.4347C55.7372 12.4789 55.7142 12.501 55.6701 12.501H54.0602C54.0494 12.501 54.0388 12.4988 54.029 12.4945C54.0191 12.4902 54.0103 12.484 54.0029 12.4761C53.9956 12.4682 53.99 12.4589 53.9865 12.4487C53.9829 12.4386 53.9815 12.4278 53.9823 12.4171C54.1263 10.6309 55.0826 9.55435 56.8511 9.18731C58.2011 8.90614 60.5205 8.87082 61.5635 9.94691C62.1363 10.5372 62.245 11.1452 62.2465 12.0225C62.2494 13.8518 62.2509 15.6797 62.2509 17.506C62.2509 17.7337 62.2886 17.955 62.364 18.17C62.3735 18.1959 62.389 18.2192 62.4092 18.2379C62.4294 18.2566 62.4537 18.2701 62.4801 18.2774C62.7298 18.3451 62.9766 18.3373 63.2204 18.2539C63.2821 18.2333 63.313 18.2558 63.313 18.3216V19.5213C63.313 19.5606 63.2953 19.589 63.2601 19.6067C62.1745 20.1308 60.6219 19.9674 60.6527 18.4305C60.6537 18.3618 60.6297 18.3515 60.5808 18.3996ZM60.5117 14.4044C59.6372 14.6743 58.7867 14.8514 57.9602 14.9358C56.7439 15.0594 55.3058 15.4481 55.4233 16.9923C55.4733 17.6371 55.8562 18.0429 56.572 18.2097C57.9602 18.535 59.7567 18.1405 60.3619 16.7052C60.6278 16.0767 60.5161 15.1507 60.5235 14.4132C60.5235 14.4117 60.5233 14.4103 60.5227 14.409C60.522 14.4076 60.5211 14.4065 60.5199 14.4056C60.5188 14.4047 60.5174 14.4042 60.516 14.404C60.5145 14.4037 60.5131 14.4039 60.5117 14.4044Z" fill="#707070"/>
<path d="M66.1218 10.7846C67.014 9.46562 68.2944 8.88709 69.9631 9.04902C71.4105 9.18838 72.3408 9.82284 72.754 10.9524C72.9146 11.3921 72.9984 12.2901 73.0052 13.6463C73.015 15.617 73.015 17.5905 73.0052 19.567C73.0052 19.6161 72.9812 19.6406 72.9332 19.6406H71.36C71.3101 19.6406 71.2851 19.6161 71.2851 19.567C71.2822 17.4924 71.2817 15.4187 71.2836 13.346C71.2856 12.5197 71.2254 11.9642 71.103 11.6796C70.7416 10.8405 69.9234 10.5285 69.0244 10.5726C67.6818 10.6394 66.8054 11.266 66.395 12.4525C66.255 12.8597 66.184 13.4873 66.1821 14.3353C66.1791 16.0792 66.1781 17.8221 66.1791 19.5641C66.1791 19.6151 66.1541 19.6406 66.1042 19.6406H64.5266C64.4776 19.6406 64.4531 19.6161 64.4531 19.567V9.33608C64.4531 9.28701 64.4776 9.26247 64.5266 9.26247H65.9955C66.0445 9.26247 66.0689 9.28701 66.0689 9.33608V10.7684C66.0689 10.8322 66.0866 10.8376 66.1218 10.7846Z" fill="#707070"/>
<path d="M80.1578 15.0535C80.2205 16.9201 81.0549 17.9888 82.6609 18.2597C84.2135 18.5203 85.5444 18.0021 85.9895 16.4005C86.0032 16.3524 86.035 16.3283 86.085 16.3283H87.6303C87.6822 16.3283 87.7032 16.3538 87.6934 16.4049C87.2601 18.5615 85.7118 19.7391 83.5804 19.8702C79.9566 20.0939 78.141 17.2219 78.3525 13.8994C78.517 11.3203 80.1931 9.25645 82.8636 9.04152C86.3479 8.7633 87.9637 11.8311 87.88 14.896C87.879 14.9431 87.855 14.9667 87.808 14.9667H80.243C80.1843 14.9667 80.1559 14.9956 80.1578 15.0535ZM80.1902 13.4224L86.0189 13.4637C86.0212 13.4637 86.0235 13.4632 86.0256 13.4623C86.0277 13.4614 86.0297 13.4601 86.0313 13.4585C86.0329 13.4568 86.0342 13.4549 86.0351 13.4528C86.036 13.4506 86.0365 13.4483 86.0365 13.446C86.0419 12.6855 85.7405 11.954 85.1986 11.4123C84.6568 10.8707 83.9188 10.5633 83.1471 10.5578H83.103C82.7209 10.555 82.3419 10.6265 81.9878 10.7681C81.6337 10.9096 81.3114 11.1186 81.0392 11.383C80.7671 11.6473 80.5505 11.962 80.4018 12.3089C80.2531 12.6558 80.1752 13.0282 80.1725 13.4048C80.1725 13.4095 80.1744 13.414 80.1777 13.4173C80.181 13.4206 80.1855 13.4224 80.1902 13.4224Z" fill="#707070"/>
<path d="M95.1923 12.2169C94.9529 10.5211 92.9787 10.3503 91.6772 10.7198C91.2439 10.842 90.8796 11.0702 90.7253 11.5074C89.7235 14.3441 98.186 12.4201 97.3487 17.141C96.8581 19.9056 93.343 20.1779 91.2233 19.6509C89.5869 19.2446 88.7183 18.1641 88.6174 16.4094C88.6145 16.3554 88.6399 16.3285 88.6938 16.3285H90.2303C90.2891 16.3285 90.3219 16.3574 90.3287 16.4153C90.5961 18.5307 93.2504 18.6146 94.7355 18.0508C95.5684 17.7358 95.8475 16.564 95.2055 15.9428C94.8603 15.6086 94.2669 15.3922 93.7293 15.2715C92.8078 15.0634 91.8912 14.8343 90.9795 14.584C89.7955 14.2587 88.9171 13.4181 88.8172 12.1566C88.7672 11.5285 88.9151 10.9666 89.2608 10.471C90.2244 9.09317 92.3779 8.86794 93.932 9.11525C95.702 9.39789 96.8625 10.3444 96.9154 12.2037C96.9173 12.2547 96.8929 12.2802 96.8419 12.2802H95.2672C95.2242 12.2802 95.1992 12.2591 95.1923 12.2169Z" fill="#707070"/>
<path d="M124.276 19.6642C122.374 20.1691 120.178 19.7658 118.907 18.1951C117.717 16.7245 117.489 14.5031 117.945 12.6733C118.641 9.87194 121.135 8.63539 123.869 9.14473C125.449 9.43914 126.549 10.2655 127.17 11.6237C128.473 14.4737 127.762 18.7398 124.276 19.6642ZM124.753 11.347C123.575 10.2782 121.705 10.2782 120.605 11.4618C119.098 13.0825 119.16 16.6052 121.122 17.8698C122.102 18.5013 123.424 18.4659 124.398 17.8462C126.362 16.5979 126.437 12.8765 124.753 11.347Z" fill="#707070"/>
<path d="M142.095 10.7875C141.219 11.0967 140.925 12.2081 141.769 12.7484C142.149 12.9908 142.623 13.1689 143.192 13.2827C144.367 13.5202 145.394 13.7994 146.272 14.1203C147.304 14.4987 147.937 15.3186 147.994 16.4447C148.151 19.5641 144.588 20.1941 142.205 19.7422C140.365 19.3938 139.367 18.2873 139.211 16.4227C139.21 16.4106 139.212 16.3985 139.215 16.3871C139.219 16.3757 139.225 16.3652 139.233 16.3564C139.241 16.3475 139.251 16.3405 139.262 16.3356C139.273 16.3308 139.285 16.3284 139.296 16.3285H140.871C140.919 16.3285 140.945 16.3525 140.949 16.4006C141.124 18.3879 143.383 18.5071 144.872 18.198C145.65 18.0361 146.239 17.5253 146.17 16.6876C145.96 14.1674 139.263 16.0134 139.435 11.8062C139.533 9.36404 142.465 8.85028 144.351 9.08582C146.167 9.31252 147.437 10.2002 147.542 12.2155C147.543 12.2586 147.523 12.2802 147.48 12.2802H145.904C145.85 12.2802 145.819 12.2537 145.811 12.2007C145.545 10.4593 143.417 10.3194 142.095 10.7875Z" fill="#707070"/>
<path d="M158.39 14.2426V14.9683H150.759C150.71 14.9683 150.684 14.9929 150.682 15.0419C150.629 16.8968 151.747 18.1789 153.542 18.3335C154.878 18.4483 156.141 17.8374 156.464 16.4242C156.479 16.3604 156.519 16.3285 156.584 16.3285H158.13C158.183 16.3285 158.204 16.3545 158.193 16.4066C157.78 18.5529 156.225 19.7305 154.102 19.8704C151.847 20.0205 150.009 18.9282 149.244 16.7599C147.963 13.1341 149.792 8.69727 154.203 9.05499C156.93 9.2758 158.272 11.7312 158.39 14.2426ZM150.678 13.4418L156.515 13.433C156.517 13.433 156.518 13.4327 156.52 13.4321C156.521 13.4314 156.522 13.4306 156.523 13.4294C156.524 13.4283 156.525 13.427 156.525 13.4256C156.526 13.4242 156.526 13.4227 156.526 13.4212C156.525 13.0448 156.449 12.6722 156.302 12.3248C156.155 11.9773 155.94 11.6618 155.669 11.3962C155.398 11.1306 155.077 10.9201 154.724 10.7768C154.371 10.6335 153.992 10.5601 153.61 10.5609H153.572C152.8 10.5625 152.061 10.8658 151.516 11.4041C150.972 11.9424 150.666 12.6716 150.668 13.4315C150.668 13.4342 150.669 13.4368 150.671 13.4388C150.673 13.4407 150.675 13.4418 150.678 13.4418Z" fill="#707070"/>
<path d="M76.7478 9.2627H75.1173C75.0914 9.2627 75.0703 9.28379 75.0703 9.3098V19.5938C75.0703 19.6198 75.0914 19.6409 75.1173 19.6409H76.7478C76.7738 19.6409 76.7948 19.6198 76.7948 19.5938V9.3098C76.7948 9.28379 76.7738 9.2627 76.7478 9.2627Z" fill="#707070"/>
<path d="M136.064 18.1452C135.642 18.7841 135.188 19.2223 134.701 19.4598C133.404 20.0928 131.411 20.0354 130.294 19.1109C129.624 18.5564 129.277 17.7748 129.251 16.7659C129.22 15.5068 129.218 13.0283 129.247 9.33041C129.247 9.28527 129.269 9.2627 129.314 9.2627H130.883C130.934 9.2627 130.96 9.28772 130.96 9.33777C130.964 11.7186 130.964 14.098 130.96 16.4759C130.957 18.0922 132.835 18.6472 134.083 18.2026C135.408 17.7306 136.071 16.7242 136.071 15.1834C136.072 13.2403 136.069 11.2932 136.061 9.34219C136.061 9.33182 136.063 9.32152 136.067 9.31188C136.071 9.30225 136.076 9.29348 136.084 9.28607C136.091 9.27867 136.1 9.27279 136.11 9.26878C136.12 9.26477 136.13 9.2627 136.14 9.2627H137.718C137.767 9.2627 137.792 9.28723 137.792 9.3363V19.5673C137.792 19.6163 137.767 19.6409 137.718 19.6409H136.212C136.164 19.6409 136.139 19.6163 136.139 19.5673V18.1688C136.139 18.0765 136.114 18.0687 136.064 18.1452Z" fill="#707070"/>
</g>
<defs>
<clipPath id="clip0_1818_14048">
<rect width="160" height="29" fill="white"/>
</clipPath>
</defs>
</svg>
