<svg width="96" height="32" viewBox="0 0 96 32" fill="none" xmlns="http://www.w3.org/2000/svg">
<g clip-path="url(#clip0_1818_14264)">
<path d="M11.8233 0.00292969H12.677C15.6407 0.0687278 18.5562 1.28599 20.6501 3.44088C19.877 4.24691 19.0877 5.02004 18.3307 5.82607C17.1548 4.7404 15.7374 3.90147 14.1911 3.60538C11.9038 3.11189 9.4394 3.55603 7.52262 4.88844C5.42866 6.28665 4.01121 8.65539 3.70517 11.1886C3.36691 13.6889 4.05953 16.3209 5.65416 18.2619C7.18436 20.1536 9.51993 21.338 11.936 21.4202C14.1911 21.5518 16.5428 20.8445 18.1857 19.2324C19.4743 18.0974 20.0703 16.3702 20.2636 14.6924C17.5897 14.6924 14.9159 14.7088 12.2421 14.6924V11.3038H23.5011C24.081 14.9391 23.2434 19.035 20.5374 21.6341C18.7334 23.4764 16.2367 24.5621 13.6917 24.7759C11.2273 25.0227 8.68235 24.5456 6.49174 23.3284C3.86624 21.8973 1.77228 19.4792 0.741408 16.6334C-0.225035 14.0179 -0.241142 11.057 0.660872 8.42509C1.48235 6.02346 3.06087 3.90147 5.0904 2.42101C7.0394 0.957003 9.40718 0.150975 11.8233 0.00292969Z" fill="#707070"/>
<path d="M76.4141 0.858398H79.861V24.3483C78.7174 24.3483 77.5577 24.3648 76.4141 24.3319C76.4302 16.5184 76.4141 8.68838 76.4141 0.858398Z" fill="#707070"/>
<path d="M31.1683 9.0009C33.2945 8.58966 35.5979 9.05025 37.3536 10.3498C38.9482 11.5012 40.0596 13.3107 40.3979 15.2846C40.8328 17.5711 40.2851 20.0714 38.8355 21.8809C37.273 23.9042 34.712 24.9898 32.2153 24.8253C29.9281 24.6938 27.7052 23.5258 26.3522 21.6177C24.822 19.5121 24.4516 16.617 25.2891 14.1496C26.1267 11.5012 28.4945 9.47794 31.1683 9.0009ZM31.6516 12.1263C30.7818 12.3566 29.9764 12.8665 29.3965 13.5903C27.8341 15.4985 27.9308 18.6074 29.6542 20.384C30.6368 21.4038 32.1187 21.8809 33.4878 21.6012C34.7603 21.3709 35.8717 20.4991 36.4838 19.3477C37.5469 17.3902 37.2408 14.6924 35.614 13.1626C34.567 12.1757 33.0368 11.7644 31.6516 12.1263Z" fill="#707070"/>
<path d="M48.2414 9.00065C50.6736 8.52361 53.3313 9.21449 55.1515 10.9581C58.1152 13.6723 58.4374 18.7552 55.9085 21.8806C54.3783 23.8546 51.8978 24.9402 49.4495 24.8251C47.1139 24.7593 44.8105 23.5749 43.4253 21.6174C41.8629 19.4625 41.5246 16.5016 42.4105 13.9849C43.2964 11.4187 45.6159 9.46123 48.2414 9.00065ZM48.7246 12.1261C47.8548 12.3564 47.0495 12.8663 46.4696 13.5736C44.9233 15.4489 44.9877 18.5085 46.6468 20.3015C47.6293 21.3707 49.1595 21.8971 50.577 21.601C51.8333 21.3542 52.9609 20.4989 53.5729 19.3474C54.6199 17.3735 54.3139 14.6757 52.6709 13.1459C51.624 12.159 50.0937 11.7642 48.7246 12.1261Z" fill="#707070"/>
<path d="M62.7207 9.95474C64.573 8.77038 67.0375 8.44139 69.0348 9.46126C69.663 9.7409 70.1784 10.2179 70.6777 10.695C70.6938 10.2508 70.6777 9.79025 70.6938 9.32966C71.773 9.34611 72.8522 9.32966 73.9475 9.34611V23.8546C73.9314 26.0424 73.3838 28.3618 71.8375 29.9574C70.1462 31.7175 67.5529 32.2603 65.2173 31.8984C62.7207 31.5201 60.5462 29.6613 59.5797 27.309C60.5462 26.832 61.561 26.4536 62.5596 26.0095C63.1234 27.3584 64.267 28.5098 65.7006 28.773C67.1341 29.0362 68.7932 28.6743 69.7274 27.457C70.7261 26.2069 70.7261 24.4961 70.6777 22.9663C69.9368 23.7066 69.0831 24.3645 68.0522 24.6113C65.8133 25.2528 63.3489 24.4632 61.6254 22.917C59.8858 21.3707 58.8549 18.9855 58.9516 16.6168C58.9999 13.9355 60.4818 11.353 62.7207 9.95474ZM66.0549 12.0603C65.0724 12.2248 64.1542 12.7841 63.5261 13.5572C62.012 15.3995 62.012 18.344 63.5422 20.1535C64.412 21.2227 65.8133 21.8149 67.1663 21.6668C68.4388 21.5352 69.6146 20.7127 70.2428 19.5777C71.3059 17.6531 71.1287 15.0376 69.6952 13.3598C68.8093 12.3235 67.3918 11.8135 66.0549 12.0603Z" fill="#707070"/>
<path d="M83.9969 10.7937C85.9298 8.95133 88.9097 8.32625 91.3902 9.29677C93.7419 10.2015 95.2399 12.488 95.9969 14.8403C92.5016 16.3207 89.0224 17.7847 85.5271 19.2652C86.0103 20.2028 86.7513 21.0582 87.7499 21.4036C89.1513 21.9136 90.8264 21.7326 92.0023 20.7785C92.4694 20.4167 92.8398 19.9396 93.1942 19.479C94.0801 20.0877 94.966 20.6799 95.8519 21.2885C94.5956 23.2131 92.4855 24.5619 90.2143 24.7758C87.7016 25.0883 85.0278 24.1014 83.4009 22.0945C80.7271 18.9362 80.9848 13.6395 83.9969 10.7937ZM85.7204 13.8368C85.1727 14.6429 84.9472 15.6298 84.9633 16.6004C87.2989 15.6134 89.6345 14.6264 91.9701 13.623C91.5835 12.7018 90.6493 12.1425 89.6989 11.9945C88.1687 11.7149 86.5741 12.5538 85.7204 13.8368Z" fill="#707070"/>
</g>
<defs>
<clipPath id="clip0_1818_14264">
<rect width="96" height="32" fill="white"/>
</clipPath>
</defs>
</svg>
