<svg width="136" height="37" viewBox="0 0 136 37" fill="none" xmlns="http://www.w3.org/2000/svg">
<path d="M50.8642 9.11621H43.341C43.0919 9.11605 42.851 9.20687 42.6616 9.37231C42.4722 9.53774 42.3468 9.76692 42.308 10.0185L39.2653 29.7494C39.2513 29.8409 39.2569 29.9345 39.2817 30.0236C39.3064 30.1128 39.3498 30.1954 39.4088 30.2657C39.4677 30.3361 39.5409 30.3925 39.6232 30.4312C39.7056 30.4699 39.7951 30.4898 39.8858 30.4897H43.4774C43.7266 30.4898 43.9677 30.3988 44.1571 30.2331C44.3465 30.0675 44.4718 29.838 44.5103 29.5862L45.331 24.2645C45.3695 24.0129 45.4946 23.7836 45.6838 23.6179C45.873 23.4523 46.1138 23.3612 46.3628 23.3611H48.7444C53.7001 23.3611 56.5602 20.9083 57.3071 16.0479C57.6437 13.9215 57.3214 12.2507 56.3479 11.0806C55.2786 9.79577 53.3821 9.11621 50.8642 9.11621ZM51.7321 16.3225C51.3207 19.0834 49.2581 19.0834 47.2637 19.0834H46.1285L46.9249 13.9271C46.9482 13.7763 47.0234 13.6389 47.1369 13.5397C47.2505 13.4405 47.3949 13.386 47.5442 13.386H48.0646C49.4231 13.386 50.7046 13.386 51.3669 14.178C51.7618 14.6506 51.8828 15.3526 51.7321 16.3225ZM73.3523 16.2336H69.7496C69.6003 16.2336 69.4559 16.2881 69.3424 16.3873C69.2288 16.4865 69.1536 16.6239 69.1303 16.7747L68.9708 17.8053L68.7189 17.4318C67.939 16.2741 66.1998 15.887 64.464 15.887C60.4829 15.887 57.0827 18.9709 56.4205 23.2969C56.0761 25.4549 56.5657 27.5183 57.7625 28.9573C58.8603 30.2804 60.4312 30.8317 62.3002 30.8317C65.5079 30.8317 67.2867 28.7221 67.2867 28.7221L67.126 29.746C67.1117 29.8375 67.117 29.9311 67.1415 30.0204C67.1659 30.1097 67.209 30.1924 67.2678 30.263C67.3266 30.3336 67.3996 30.3903 67.4818 30.4292C67.5641 30.4682 67.6536 30.4884 67.7443 30.4885H70.9894C71.2386 30.4887 71.4797 30.3977 71.6691 30.232C71.8585 30.0664 71.9838 29.8369 72.0223 29.5851L73.9694 16.9739C73.9837 16.8826 73.9785 16.7891 73.9541 16.7001C73.9297 16.611 73.8866 16.5284 73.8279 16.458C73.7693 16.3876 73.6963 16.3311 73.6142 16.2923C73.5321 16.2536 73.4427 16.2335 73.3523 16.2336ZM68.3306 23.4049C67.983 25.51 66.3494 26.9231 64.2659 26.9231C63.2198 26.9231 62.3838 26.58 61.847 25.9297C61.3145 25.2838 61.1121 24.3646 61.2815 23.3408C61.606 21.2538 63.2671 19.7945 65.3187 19.7945C66.3417 19.7945 67.1733 20.1422 67.7212 20.7981C68.2701 21.4608 68.4879 22.3856 68.3306 23.4049ZM92.5392 16.2336H88.9189C88.7482 16.2338 88.5801 16.2767 88.4293 16.3585C88.2784 16.4402 88.1493 16.5584 88.0532 16.7027L83.0601 24.2251L80.9437 16.9964C80.8787 16.7759 80.746 16.5827 80.5654 16.4453C80.3847 16.3079 80.1656 16.2337 79.9404 16.2336H76.3829C76.283 16.2333 76.1845 16.2574 76.0956 16.3039C76.0067 16.3505 75.93 16.418 75.8718 16.501C75.8136 16.584 75.7756 16.68 75.7609 16.781C75.7463 16.8821 75.7555 16.9852 75.7878 17.0819L79.7754 29.0507L76.0265 34.4635C75.9598 34.5595 75.9203 34.6724 75.9122 34.7898C75.9042 34.9072 75.9278 35.0246 75.9807 35.1292C76.0335 35.2337 76.1134 35.3214 76.2117 35.3826C76.31 35.4438 76.4229 35.4761 76.538 35.4761H80.1538C80.3226 35.4763 80.489 35.4347 80.6386 35.3547C80.7883 35.2748 80.9167 35.1589 81.013 35.0171L93.054 17.2405C93.1193 17.1444 93.1575 17.0317 93.1647 16.9149C93.1718 16.7981 93.1476 16.6815 93.0945 16.5777C93.0415 16.474 92.9617 16.3871 92.8638 16.3264C92.7659 16.2657 92.6536 16.2336 92.5392 16.2336Z" fill="#707070"/>
<path d="M104.528 9.11636H97.0041C96.7553 9.11647 96.5146 9.20741 96.3254 9.37282C96.1363 9.53823 96.0111 9.76726 95.9723 10.0187L92.9296 29.7495C92.9154 29.8409 92.9208 29.9344 92.9454 30.0234C92.9699 30.1125 93.0131 30.195 93.0718 30.2654C93.1306 30.3358 93.2036 30.3923 93.2858 30.431C93.3679 30.4698 93.4573 30.4898 93.5478 30.4898H97.4089C97.5831 30.4896 97.7515 30.4257 97.8838 30.3098C98.0161 30.1939 98.1036 30.0335 98.1306 29.8575L98.9941 24.2647C99.0326 24.013 99.1578 23.7837 99.3469 23.6181C99.5361 23.4525 99.7769 23.3614 100.026 23.3612H102.406C107.363 23.3612 110.222 20.9085 110.97 16.0481C111.308 13.9216 110.983 12.2509 110.01 11.0808C108.942 9.79592 107.046 9.11636 104.528 9.11636ZM105.396 16.3226C104.986 19.0836 102.923 19.0836 100.928 19.0836H99.7938L100.591 13.9273C100.614 13.7764 100.689 13.6389 100.803 13.5396C100.916 13.4404 101.06 13.3859 101.21 13.3861H101.73C103.087 13.3861 104.37 13.3861 105.032 14.1782C105.427 14.6507 105.547 15.3528 105.396 16.3226ZM127.015 16.2337H123.415C123.266 16.2333 123.121 16.2877 123.008 16.387C122.894 16.4863 122.819 16.6239 122.797 16.7749L122.637 17.8055L122.384 17.4319C121.604 16.2742 119.866 15.8872 118.13 15.8872C114.149 15.8872 110.75 18.9711 110.088 23.2971C109.745 25.455 110.232 27.5184 111.429 28.9574C112.529 30.2806 114.098 30.8318 115.967 30.8318C119.174 30.8318 120.953 28.7223 120.953 28.7223L120.793 29.7461C120.778 29.8379 120.783 29.9317 120.808 30.0211C120.833 30.1105 120.876 30.1934 120.935 30.264C120.994 30.3346 121.067 30.3913 121.15 30.4301C121.232 30.4689 121.322 30.4889 121.413 30.4887H124.657C124.906 30.4885 125.147 30.3974 125.336 30.2318C125.525 30.0662 125.65 29.8369 125.689 29.5852L127.637 16.974C127.651 16.8824 127.645 16.7888 127.62 16.6997C127.595 16.6105 127.552 16.528 127.493 16.4576C127.434 16.3873 127.36 16.3309 127.278 16.2922C127.196 16.2536 127.106 16.2336 127.015 16.2337ZM121.994 23.4051C121.648 25.5101 120.013 26.9233 117.929 26.9233C116.885 26.9233 116.047 26.5801 115.51 25.9298C114.978 25.284 114.777 24.3648 114.945 23.341C115.271 21.2539 116.93 19.7946 118.982 19.7946C120.005 19.7946 120.837 20.1423 121.384 20.7982C121.935 21.4609 122.153 22.3857 121.994 23.4051ZM131.263 9.65753L128.175 29.7495C128.161 29.8409 128.166 29.9344 128.191 30.0234C128.215 30.1125 128.258 30.195 128.317 30.2654C128.376 30.3358 128.449 30.3923 128.531 30.431C128.613 30.4698 128.703 30.4898 128.793 30.4898H131.897C132.413 30.4898 132.851 30.1073 132.93 29.5864L135.975 9.85667C135.989 9.76522 135.984 9.67172 135.959 9.5826C135.935 9.49348 135.892 9.41085 135.833 9.3404C135.774 9.26995 135.701 9.21335 135.619 9.17448C135.537 9.13561 135.448 9.1154 135.357 9.11523H131.881C131.732 9.11577 131.587 9.17064 131.474 9.27001C131.361 9.36938 131.286 9.50676 131.263 9.65753Z" fill="#707070"/>
<path d="M8.02106 34.3243L8.59638 30.5867L7.31484 30.5563H1.19531L5.44807 2.97682C5.46073 2.89256 5.50258 2.81575 5.56598 2.7604C5.62938 2.70505 5.71012 2.67485 5.79348 2.6753H16.1119C19.5374 2.6753 21.9014 3.40436 23.1356 4.84336C23.7142 5.51842 24.0828 6.22385 24.261 7.00017C24.448 7.81474 24.4513 8.78795 24.2687 9.97492L24.2555 10.0616V10.8221L24.8341 11.1574C25.2758 11.3863 25.6729 11.6959 26.0056 12.071C26.5006 12.6482 26.8208 13.3817 26.9561 14.2514C27.0958 15.1459 27.0496 16.2102 26.8208 17.4152C26.5567 18.8013 26.1299 20.0085 25.5535 20.9964C25.0449 21.8813 24.3611 22.6478 23.5459 23.2466C22.7803 23.8024 21.8706 24.2243 20.842 24.4943C19.8454 24.7598 18.7091 24.8937 17.4627 24.8937H16.6597C16.0855 24.8937 15.5277 25.1052 15.0899 25.4844C14.6527 25.8676 14.3627 26.3971 14.2715 26.9785L14.211 27.3149L13.1946 33.9023L13.1484 34.1442C13.1363 34.2208 13.1153 34.259 13.0845 34.2849C13.0547 34.3098 13.0175 34.3237 12.9789 34.3243H8.02106Z" fill="#253B80"/>
<path d="M25.3822 10.1494C25.3514 10.3508 25.3162 10.5567 25.2766 10.7682C23.9159 17.9137 19.2605 20.3822 13.3148 20.3822H10.2875C9.56035 20.3822 8.94763 20.9222 8.83432 21.6558L7.28437 31.7096L6.84545 34.5595C6.82797 34.6726 6.83464 34.7881 6.86502 34.8983C6.89539 35.0084 6.94875 35.1105 7.02141 35.1976C7.09407 35.2846 7.18431 35.3545 7.28591 35.4025C7.38752 35.4504 7.49808 35.4753 7.60998 35.4753H12.9793C13.6151 35.4753 14.1552 35.0028 14.2553 34.3615L14.3081 34.0825L15.3191 27.5209L15.384 27.1609C15.483 26.5173 16.0242 26.0448 16.66 26.0448H17.463C22.6651 26.0448 26.7375 23.8846 27.9277 17.6336C28.4249 15.0222 28.1675 12.8418 26.8519 11.3083C26.4349 10.8339 25.9369 10.4412 25.3822 10.1494Z" fill="#707070"/>
<path d="M23.9604 9.56879C23.5259 9.44024 23.0839 9.33991 22.637 9.26839C21.7541 9.1296 20.8617 9.06301 19.9683 9.06925H11.8808C11.5731 9.06901 11.2753 9.18139 11.0415 9.38609C10.8077 9.59078 10.6532 9.87428 10.6059 10.1853L8.88544 21.3305L8.83594 21.6557C8.88954 21.3009 9.06552 20.9774 9.33206 20.7438C9.59859 20.5102 9.93808 20.3819 10.2891 20.3821H13.3164C19.2621 20.3821 23.9175 17.9125 25.2782 10.7681C25.3189 10.5566 25.353 10.3507 25.3838 10.1493C25.0248 9.95676 24.6505 9.7953 24.2651 9.66667C24.1641 9.63238 24.0625 9.59975 23.9604 9.56879Z" fill="#707070"/>
<path d="M10.6069 10.1851C10.6538 9.87392 10.8082 9.59028 11.0422 9.38569C11.2761 9.1811 11.5741 9.06912 11.8819 9.0701H19.9694C20.9275 9.0701 21.8218 9.13423 22.6381 9.26924C23.1904 9.35802 23.7351 9.49081 24.2672 9.6664C24.6688 9.80254 25.0417 9.96342 25.386 10.1491C25.7908 7.50846 25.3827 5.71056 23.9867 4.08254C22.4478 2.29027 19.6702 1.52295 16.1159 1.52295H5.79756C5.07154 1.52295 4.45221 2.063 4.34001 2.79768L0.0421511 30.6607C0.0221324 30.7901 0.0297488 30.9223 0.0644765 31.0484C0.0992041 31.1745 0.160219 31.2913 0.243323 31.391C0.326428 31.4906 0.42965 31.5707 0.54589 31.6256C0.66213 31.6806 0.788628 31.7091 0.916683 31.7093H7.28702L8.88647 21.3303L10.6069 10.1851Z" fill="#707070"/>
</svg>
