<svg width="114" height="38" viewBox="0 0 114 38" fill="none" xmlns="http://www.w3.org/2000/svg">
<g clip-path="url(#clip0_1818_14015)">
<path d="M114.946 5.06374C114.841 5.08713 114.753 5.05465 114.68 4.96631" stroke="#474747" stroke-width="2"/>
<path d="M0.299542 0.197754H0.0703125" stroke="#474747" stroke-width="2"/>
<path d="M93.1856 14.3835C92.7136 10.1899 94.6785 5.51101 99.2611 4.8387C103.118 4.27163 106.504 6.07224 107.687 9.94629C108.097 11.2909 108.134 12.8947 108.082 14.3543C108.081 14.3851 108.068 14.4144 108.046 14.4358C108.024 14.4573 107.995 14.4693 107.964 14.4693H105.26C105.234 14.4693 105.209 14.4641 105.186 14.454C105.162 14.4439 105.141 14.4292 105.123 14.4106C105.106 14.392 105.092 14.3701 105.083 14.346C105.074 14.3219 105.07 14.2962 105.071 14.2705C105.177 11.2792 104.298 7.86116 100.731 7.86896C96.9669 7.8787 96.05 11.0999 96.2253 14.2549C96.2269 14.2825 96.2228 14.3101 96.2135 14.3361C96.2041 14.362 96.1896 14.3858 96.1708 14.4058C96.1521 14.4259 96.1295 14.4419 96.1044 14.4528C96.0793 14.4637 96.0522 14.4693 96.0249 14.4693H93.28C93.2568 14.4694 93.2344 14.4607 93.217 14.4449C93.1996 14.4291 93.1884 14.4073 93.1856 14.3835Z" fill="#707070"/>
<path d="M21.3989 9.49966H22.9554C23.035 9.49966 23.0748 9.53993 23.0748 9.62048V10.5461C23.0748 10.628 23.0344 10.6689 22.9535 10.6689H21.4972C21.4317 10.6689 21.3983 10.702 21.397 10.7683L21.3277 16.1331C21.3264 16.1929 21.2962 16.2227 21.2371 16.2227L19.856 16.2247C19.7866 16.2247 19.7519 16.1896 19.7519 16.1194V10.7897C19.7519 10.7351 19.7256 10.7014 19.673 10.6884L18.9063 10.4993C18.8761 10.4915 18.8491 10.4742 18.8293 10.4501C18.8096 10.4259 18.7981 10.396 18.7965 10.3649L18.758 9.5893C18.7554 9.52954 18.7837 9.49966 18.8427 9.49966H19.646C19.7064 9.49966 19.7385 9.46913 19.7423 9.40807C19.856 7.3736 20.8018 6.07771 23.017 6.6214C23.0454 6.62828 23.0705 6.64499 23.0878 6.66855C23.1051 6.69211 23.1135 6.72098 23.1114 6.75001L23.0575 7.51586C23.0552 7.54708 23.0432 7.57682 23.0231 7.60093C23.0031 7.62504 22.9761 7.64231 22.9457 7.65032C21.5646 8.01473 21.3951 7.76725 21.3277 9.42366C21.3251 9.47432 21.3488 9.49966 21.3989 9.49966Z" fill="#707070"/>
<path d="M6.06395 14.0682C6.97702 14.7464 9.61412 15.633 9.6565 13.5342C9.69695 11.4998 4.85809 12.6028 5.35508 8.96256C5.72878 6.21292 9.25005 6.04922 11.0627 7.50686C11.1269 7.55883 11.1391 7.62119 11.0993 7.69394L10.5946 8.60789C10.5743 8.64441 10.5414 8.67211 10.502 8.68575C10.4626 8.69939 10.4195 8.69804 10.3808 8.68194C9.47928 8.30389 8.46605 7.61404 7.46823 8.29025C6.64762 8.84369 6.95583 9.99538 7.86504 10.2721C9.87225 10.884 12.282 11.8369 11.0203 14.5944C9.93581 16.9698 6.75357 16.6541 5.01605 15.1536C4.99107 15.1324 4.9747 15.1025 4.97009 15.0698C4.96547 15.0371 4.97291 15.0038 4.99101 14.9763L5.50918 14.1695C5.53788 14.1249 5.57532 14.0867 5.6192 14.0572C5.66309 14.0278 5.7125 14.0077 5.76442 13.9982C5.81634 13.9887 5.86968 13.99 5.92118 14.0021C5.97268 14.0141 6.02126 14.0366 6.06395 14.0682Z" fill="#707070"/>
<path d="M39.2378 13.0501C39.4895 12.459 39.6487 11.8438 39.7155 11.2046C39.7194 11.1702 39.7349 11.1382 39.7592 11.1143C39.7835 11.0905 39.8151 11.0762 39.8484 11.0741L40.9117 10.9903C40.9913 10.9851 41.0299 11.0228 41.0273 11.1033C40.9939 12.1465 40.7159 13.1131 40.1932 14.003C40.166 14.0494 40.1547 14.1035 40.161 14.157C40.1673 14.2106 40.1908 14.2605 40.2279 14.2992L41.9288 16.094C41.9879 16.1563 41.975 16.1914 41.8903 16.1992C41.4254 16.2434 40.9618 16.2616 40.4995 16.2538C39.9043 16.2421 39.6269 15.6867 39.1819 15.3223C39.1292 15.2794 39.0753 15.2768 39.0201 15.3145C37.7102 16.2031 36.1191 16.6669 34.6782 16.0238C32.3397 14.9812 32.9079 11.9939 34.9479 10.9942C34.9748 10.9806 34.9954 10.957 35.0051 10.9285C35.0148 10.9 35.013 10.869 34.9999 10.8422C34.7976 10.429 34.578 10.0568 34.4837 9.63591C33.6977 6.1594 38.9796 5.3994 39.5479 8.57971C39.5633 8.66675 39.528 8.71807 39.442 8.73366L38.4306 8.91879C38.3972 8.92503 38.3628 8.92046 38.3323 8.90574C38.3018 8.89103 38.2769 8.86693 38.2611 8.83694C38.0627 8.45694 37.8874 8.05356 37.4694 7.9035C36.7528 7.64627 36.0401 8.02043 35.913 8.81161C35.7203 10.0218 38.2669 12.2472 39.1029 13.0754C39.1607 13.1326 39.2057 13.1241 39.2378 13.0501ZM38.1456 14.192L35.7165 11.76C35.7057 11.7493 35.6912 11.7433 35.676 11.7433C35.6609 11.7433 35.6464 11.7493 35.6356 11.76L35.5624 11.8341C35.1625 12.243 34.9108 12.7671 34.8628 13.2912C34.8147 13.8153 34.9742 14.2963 35.3062 14.6285L35.3158 14.6363C35.6477 14.9683 36.1246 15.1244 36.6419 15.0704C37.1591 15.0163 37.6744 14.7564 38.0743 14.3479L38.1456 14.2739C38.1561 14.2629 38.1621 14.2482 38.1621 14.2329C38.1621 14.2176 38.1561 14.2029 38.1456 14.192Z" fill="#707070"/>
<path d="M45.9637 14.1187C46.8074 14.6098 47.4932 14.9859 48.4063 14.8183C49.6699 14.5864 50.0532 13.0781 48.7761 12.472C47.21 11.7296 45.1681 11.5912 45.2279 9.358C45.3088 6.2342 49.0419 6.00035 50.9432 7.46384C50.9971 7.50671 51.0132 7.56128 50.9913 7.62753C50.8514 8.02637 50.6324 8.37324 50.3345 8.66815C50.2754 8.72791 50.2118 8.73376 50.1438 8.68569C49.4516 8.19331 48.7279 7.9783 47.9728 8.04066C46.948 8.12641 46.4337 9.37943 47.3757 10.0498C47.6312 10.2317 48.2111 10.4694 49.1151 10.763C50.5772 11.2385 51.4228 12.2382 51.1474 13.842C50.6119 16.9483 46.8286 16.7807 44.937 15.1944C44.8792 15.1463 44.8676 15.0885 44.9023 15.021C45.0718 14.6916 45.382 13.7796 45.9637 14.1187Z" fill="#707070"/>
<path d="M16.2761 12.241C16.3782 9.9766 14.7216 10.6002 13.4714 11.1926C13.4149 11.2186 13.3578 11.2205 13.3 11.1984C12.9712 11.0672 12.7561 10.8256 12.6547 10.4735C12.638 10.4125 12.6534 10.3611 12.7009 10.3196C14.5386 8.75475 17.8056 8.88337 17.8576 11.976C17.882 13.3349 17.8807 14.6977 17.8537 16.0644C17.8525 16.1216 17.8248 16.1586 17.7709 16.1755C17.0646 16.408 16.6305 16.1956 16.4687 15.5382C16.4443 15.4395 16.3949 15.4239 16.3204 15.4915C15.1222 16.6042 12.0729 16.8244 12.2925 14.4119C12.4485 12.7087 14.8314 12.3638 16.1509 12.3618C16.1831 12.3619 16.2141 12.3493 16.2374 12.3268C16.2608 12.3043 16.2746 12.2736 16.2761 12.241ZM14.2169 13.8175C12.8377 14.6418 14.9354 15.9728 16.2068 14.5113C16.253 14.458 16.2761 14.3956 16.2761 14.3242V13.5408C16.2762 13.5125 16.2659 13.4852 16.2471 13.464C16.2282 13.4428 16.2022 13.4292 16.174 13.4258C15.4536 13.3375 14.8012 13.4681 14.2169 13.8175Z" fill="#707070"/>
<path d="M25.2415 13.1432C25.2415 14.1936 25.8463 14.9302 26.8711 15.0491C27.6397 15.1387 28.2503 14.7158 28.9168 14.482C28.9482 14.4717 28.9819 14.4712 29.0135 14.4806C29.0451 14.49 29.0732 14.5088 29.0941 14.5346L29.5698 15.1309C29.6392 15.2179 29.6302 15.2959 29.5429 15.3647C28.0461 16.5515 25.9253 16.7698 24.5403 15.3355C22.639 13.3673 23.6369 9.47182 26.6245 9.37243C28.6568 9.30618 29.8299 10.6664 29.6874 12.7008C29.6805 12.7978 29.6377 12.8886 29.5677 12.9548C29.4976 13.021 29.4054 13.0577 29.3098 13.0575H25.3281C25.2703 13.0575 25.2415 13.086 25.2415 13.1432ZM25.3339 12.0928L28.2311 12.0617C28.2403 12.0617 28.2491 12.058 28.2556 12.0514C28.2621 12.0448 28.2657 12.0359 28.2657 12.0266V12.0091C28.2637 11.8128 28.2237 11.6188 28.1478 11.4383C28.072 11.2577 27.9619 11.0941 27.8238 10.9567C27.6857 10.8194 27.5223 10.711 27.343 10.6378C27.1637 10.5646 26.9719 10.5279 26.7786 10.53H26.7555C26.5623 10.532 26.3713 10.5727 26.1935 10.6497C26.0157 10.7267 25.8546 10.8385 25.7194 10.9787C25.5841 11.119 25.4774 11.2849 25.4053 11.467C25.3333 11.6492 25.2972 11.8439 25.2992 12.0402V12.0578C25.2992 12.0671 25.3029 12.076 25.3094 12.0826C25.3159 12.0891 25.3247 12.0928 25.3339 12.0928Z" fill="#707070"/>
<path d="M53.6789 13.1458C53.8368 15.4375 55.767 15.303 57.2907 14.4495C57.3187 14.434 57.3509 14.4285 57.3824 14.4338C57.4138 14.4391 57.4425 14.4549 57.4641 14.4787L58.0477 15.1393C58.1029 15.2017 58.1004 15.2608 58.04 15.3166C57.3902 15.9259 56.5561 16.2553 55.5378 16.3046C50.9108 16.5307 50.8337 9.0671 55.5416 9.38279C57.283 9.49971 58.1556 10.6124 58.1594 12.7209C58.1597 12.7649 58.1514 12.8084 58.1351 12.8491C58.1187 12.8897 58.0947 12.9267 58.0642 12.9578C58.0338 12.989 57.9976 13.0137 57.9577 13.0306C57.9179 13.0474 57.8751 13.0561 57.832 13.0561H53.7617C53.7026 13.0561 53.675 13.086 53.6789 13.1458ZM53.7848 12.0915L56.6858 12.072C56.6909 12.072 56.6959 12.071 56.7006 12.0691C56.7052 12.0671 56.7095 12.0642 56.7131 12.0606C56.7166 12.057 56.7195 12.0527 56.7214 12.048C56.7234 12.0432 56.7244 12.0382 56.7244 12.033V12.0136C56.7231 11.8174 56.6837 11.6234 56.6085 11.4426C56.5332 11.2619 56.4236 11.0979 56.2858 10.9602C56.1481 10.8225 55.9849 10.7136 55.8056 10.6399C55.6264 10.5662 55.4345 10.529 55.2411 10.5306H55.2064C54.8164 10.5337 54.4436 10.6936 54.1698 10.9753C53.8961 11.2571 53.7437 11.6375 53.7463 12.033V12.0525C53.7463 12.0629 53.7504 12.0728 53.7576 12.0801C53.7648 12.0874 53.7746 12.0915 53.7848 12.0915Z" fill="#707070"/>
<path d="M59.7965 10.4619C60.9793 9.03348 63.1772 9.00814 64.5333 10.1988C64.5988 10.256 64.6039 10.3183 64.5487 10.3859L64.0209 11.0368C63.9695 11.0991 63.9073 11.1134 63.8341 11.0796C63.4315 10.8867 63.0616 10.6626 62.6263 10.6217C59.392 10.3118 60.4727 17.1421 63.7609 14.5016C63.8071 14.4642 63.8657 14.446 63.9247 14.4507C63.9838 14.4554 64.0388 14.4826 64.0787 14.5269L64.593 15.1037C64.6521 15.17 64.6508 15.2349 64.5892 15.2986C63.9458 15.9625 63.2465 16.3041 62.4914 16.3236C60.5022 16.3717 59.3644 15.411 59.078 13.4415C58.9047 12.2411 59.1442 11.2479 59.7965 10.4619Z" fill="#707070"/>
<path d="M74.802 10.5498C75.3914 9.64753 76.3257 8.9986 77.3716 9.53255C77.4358 9.56503 77.4602 9.617 77.4448 9.68845L77.2118 10.8109C77.205 10.8427 77.192 10.8727 77.1734 10.8992C77.1548 10.9257 77.1311 10.9481 77.1038 10.965C77.0764 10.982 77.0459 10.9931 77.0141 10.9978C76.9823 11.0024 76.95 11.0005 76.919 10.9921C75.6572 10.6628 74.7885 11.3702 74.7923 12.6291C74.7949 13.784 74.7942 14.9376 74.7904 16.09C74.7904 16.1783 74.7467 16.2225 74.6594 16.2225H73.3245C73.2436 16.2225 73.2031 16.1816 73.2031 16.0997V9.55983C73.2031 9.50397 73.2307 9.47734 73.286 9.47994L74.4013 9.50917C74.4355 9.5103 74.4683 9.5231 74.4943 9.54543C74.5202 9.56775 74.5377 9.59828 74.5438 9.63194L74.6999 10.5283C74.7166 10.6219 74.7506 10.629 74.802 10.5498Z" fill="#707070"/>
<path d="M79.7125 13.1431C79.8679 14.5241 80.5903 15.1509 81.8796 15.0236C82.367 14.9768 82.889 14.6553 83.3667 14.4682C83.3999 14.4557 83.436 14.4539 83.4699 14.463C83.5037 14.4721 83.5337 14.4916 83.5555 14.5189L84.066 15.1444C84.1135 15.2016 84.1103 15.2555 84.0563 15.3061C82.6925 16.6098 80.2134 16.7423 78.9555 15.2711C76.9117 12.8761 78.63 8.52655 82.132 9.47948C83.6126 9.88221 84.2933 10.9956 84.1738 12.8196C84.17 12.8884 84.1366 12.9365 84.0737 12.9638C83.4033 13.2522 81.1842 13.0495 79.7819 13.0632C79.7292 13.0632 79.7061 13.0898 79.7125 13.1431ZM79.8474 12.0927L82.7214 12.0674C82.7337 12.0674 82.7454 12.0624 82.7541 12.0537C82.7628 12.0449 82.7676 12.033 82.7676 12.0206V11.9894C82.7644 11.6092 82.6221 11.2457 82.3721 10.979C82.1222 10.7122 81.785 10.564 81.4346 10.5669L81.111 10.5708C80.9374 10.5722 80.7658 10.6107 80.606 10.6841C80.4462 10.7576 80.3013 10.8645 80.1797 10.9988C80.0581 11.1331 79.962 11.2921 79.8971 11.4667C79.8321 11.6414 79.7995 11.8283 79.8011 12.0167V12.0479C79.8016 12.0599 79.8067 12.0714 79.8153 12.0797C79.824 12.0881 79.8354 12.0927 79.8474 12.0927Z" fill="#707070"/>
<path d="M71.4553 16.0978C71.4553 16.1308 71.4423 16.1626 71.4192 16.1859C71.3961 16.2093 71.3647 16.2225 71.332 16.2225H70.3843C70.3093 16.2225 70.2365 16.1966 70.178 16.1492C70.1195 16.1017 70.0788 16.0354 70.0626 15.9614L69.9682 15.5346C69.9476 15.4397 69.9014 15.4255 69.8295 15.4917C68.0188 17.1793 65.6417 16.2985 65.6109 13.7028C65.5878 11.7969 65.5807 10.414 65.5897 9.55397C65.5897 9.48511 65.6237 9.45068 65.6918 9.45068H67.0691C67.1346 9.45068 67.168 9.48381 67.1693 9.55007C67.1937 11.0597 67.2168 12.5647 67.2386 14.0652C67.2598 15.5034 69.1399 15.1331 69.7621 14.3244C69.8045 14.2699 69.8256 14.2069 69.8256 14.1354V9.54812C69.8256 9.48316 69.8577 9.45068 69.922 9.45068H71.3224C71.3892 9.45068 71.4225 9.48446 71.4225 9.55202L71.4553 16.0978Z" fill="#707070"/>
<path d="M111.388 29.9995C111.388 30.83 111.062 31.6266 110.481 32.2139C109.901 32.8011 109.113 33.1311 108.292 33.1311H92.9627C92.1418 33.1311 91.3544 32.8011 90.7739 32.2139C90.1933 31.6266 89.8672 30.83 89.8672 29.9995V18.8723C89.8672 18.4611 89.9473 18.0538 90.1028 17.6739C90.2584 17.294 90.4864 16.9487 90.7739 16.6579C91.0613 16.3671 91.4026 16.1365 91.7781 15.9791C92.1537 15.8217 92.5562 15.7407 92.9627 15.7407H108.292C108.699 15.7407 109.101 15.8217 109.477 15.9791C109.852 16.1365 110.194 16.3671 110.481 16.6579C110.769 16.9487 110.997 17.294 111.152 17.6739C111.308 18.0538 111.388 18.4611 111.388 18.8723V29.9995ZM101.722 21.3706C99.3658 19.9636 97.0215 23.481 99.3658 25.2583C99.3902 25.2763 99.4101 25.3 99.4238 25.3275C99.4375 25.3549 99.4447 25.3853 99.4447 25.4161C99.4447 26.4587 99.0498 28.7387 100.489 28.9141C102.246 29.1265 101.801 26.447 101.806 25.4434C101.806 25.3797 101.831 25.3271 101.882 25.2855C103.259 24.1689 103.257 22.2884 101.722 21.3706Z" fill="#707070"/>
<path d="M12.2849 28.9809L12.466 29.1465C12.4775 29.1573 12.4867 29.1702 12.4931 29.1846C12.4995 29.1989 12.503 29.2144 12.5034 29.2301C12.5037 29.2457 12.501 29.2613 12.4952 29.2757C12.4894 29.2901 12.4808 29.3032 12.4699 29.3141C11.4855 30.306 10.4261 30.5515 9.10848 30.5535C3.14659 30.5613 3.48562 19.7751 10.5532 21.1587C11.2659 21.2977 11.8502 21.5803 12.3061 22.0064C12.3522 22.0494 12.3829 22.1066 12.3934 22.1692C12.4038 22.2317 12.3935 22.296 12.364 22.3519C12.3345 22.4079 12.2874 22.4523 12.2302 22.4783C12.1731 22.5043 12.109 22.5103 12.048 22.4955C11.7687 22.4293 11.5452 22.1409 11.3045 22.0278C7.94885 20.4572 4.95345 23.3237 5.67967 26.7983C6.12914 28.9536 7.41205 30.0137 9.52841 29.9786C10.4819 29.963 11.3661 29.6181 12.0499 28.9809C12.0822 28.9514 12.124 28.9351 12.1674 28.9351C12.2109 28.9351 12.2527 28.9514 12.2849 28.9809Z" fill="#707070"/>
<path d="M36.3533 27.7323C37.4128 30.252 40.5719 30.6905 42.4905 28.9444C42.5496 28.8899 42.6074 28.8912 42.6639 28.9483L42.8815 29.1685C42.9278 29.2166 42.9271 29.264 42.8796 29.3108C42.1759 29.9902 41.4619 30.3793 40.7376 30.4781C37.8276 30.8756 36.0438 29.6654 35.3863 26.8476C35.2656 26.3292 35.2573 25.7147 35.3613 25.0041C35.8833 21.4029 39.9555 19.688 42.7987 22.1005C42.8108 22.1105 42.8206 22.1231 42.8274 22.1373C42.8341 22.1516 42.8377 22.1672 42.8379 22.1832C42.8381 22.1991 42.8349 22.215 42.8284 22.2296C42.822 22.2443 42.8125 22.2574 42.8006 22.2681L42.5733 22.4708C42.55 22.4917 42.5204 22.5039 42.4895 22.5053C42.4586 22.5067 42.4283 22.4973 42.4038 22.4786C41.1787 21.5718 39.8611 21.3587 38.4511 21.8394C36.1318 22.6286 35.5135 25.729 36.3533 27.7323Z" fill="#707070"/>
<path d="M58.8395 30.4833C53.548 29.3822 54.3917 20.4591 60.1571 21.0846C63.6861 21.4685 64.8303 24.871 63.7651 27.911C63.087 29.8441 60.8101 30.8944 58.8395 30.4833ZM60.4538 21.6712C54.6344 20.7104 54.5728 30.4677 60.0261 29.9591C64.5337 29.5381 64.5664 22.3493 60.4538 21.6712Z" fill="#707070"/>
<path d="M22.9885 25.5719C22.9012 27.2075 22.9057 28.8529 23.002 30.508L22.4318 30.4963C22.3702 30.495 22.3393 30.4625 22.3393 30.3989V26.1136C22.3393 26.0487 22.3072 26.0162 22.243 26.0162H16.6221C16.5669 26.0162 16.5393 26.0441 16.5393 26.1L16.5624 30.3755C16.5637 30.4573 16.5232 30.4982 16.441 30.4982H15.9652C15.8894 30.4982 15.8516 30.4599 15.8516 30.3833L15.8805 21.1619C15.8805 21.1035 15.9094 21.0775 15.9671 21.084L16.4217 21.1444C16.5168 21.1561 16.5643 21.2106 16.5643 21.3081L16.5547 25.379C16.5547 25.4465 16.5874 25.4803 16.6529 25.4803H22.243C22.3072 25.4803 22.3393 25.4478 22.3393 25.3829V21.1873C22.3392 21.1744 22.3418 21.1617 22.3471 21.15C22.3523 21.1383 22.36 21.1278 22.3697 21.1193C22.3794 21.1109 22.3908 21.1045 22.4032 21.1008C22.4155 21.097 22.4286 21.0959 22.4414 21.0976L22.8903 21.16C22.9686 21.1717 23.0078 21.2171 23.0078 21.2964L22.9885 25.5719Z" fill="#707070"/>
<path d="M27.6039 21.7866V25.3722C27.6039 25.3863 27.6066 25.4002 27.612 25.4132C27.6173 25.4262 27.6251 25.4381 27.6349 25.448C27.6448 25.458 27.6564 25.4659 27.6693 25.4712C27.6821 25.4766 27.6959 25.4794 27.7098 25.4794H31.5913C31.6194 25.4794 31.6464 25.4907 31.6662 25.5108C31.6861 25.5309 31.6973 25.5582 31.6973 25.5866V25.9081C31.6973 25.9365 31.6861 25.9638 31.6662 25.9839C31.6464 26.004 31.6194 26.0153 31.5913 26.0153H27.7098C27.6959 26.0153 27.6821 26.0181 27.6693 26.0235C27.6564 26.0288 27.6448 26.0367 27.6349 26.0467C27.6251 26.0566 27.6173 26.0685 27.612 26.0815C27.6066 26.0945 27.6039 26.1084 27.6039 26.1225V29.8055C27.6039 29.8196 27.6066 29.8336 27.612 29.8466C27.6173 29.8596 27.6251 29.8714 27.6349 29.8813C27.6448 29.8913 27.6564 29.8992 27.6693 29.9046C27.6821 29.91 27.6959 29.9127 27.7098 29.9127H32.3618C32.3758 29.9127 32.3895 29.9155 32.4024 29.9209C32.4152 29.9263 32.4269 29.9342 32.4368 29.9441C32.4466 29.9541 32.4544 29.9659 32.4597 29.9789C32.4651 29.9919 32.4678 30.0058 32.4678 30.0199V30.3902C32.4678 30.4042 32.4651 30.4182 32.4597 30.4312C32.4544 30.4442 32.4466 30.456 32.4368 30.466C32.4269 30.4759 32.4152 30.4838 32.4024 30.4892C32.3895 30.4946 32.3758 30.4973 32.3618 30.4973H27.0356C27.0217 30.4973 27.0079 30.4946 26.9951 30.4892C26.9822 30.4838 26.9706 30.4759 26.9607 30.466C26.9509 30.456 26.9431 30.4442 26.9378 30.4312C26.9324 30.4182 26.9297 30.4042 26.9297 30.3902V21.2624C26.9297 21.2483 26.9324 21.2344 26.9378 21.2214C26.9431 21.2084 26.9509 21.1965 26.9607 21.1866C26.9706 21.1766 26.9822 21.1687 26.9951 21.1633C27.0079 21.158 27.0217 21.1552 27.0356 21.1552L32.3927 21.1182C32.4208 21.1182 32.4477 21.1295 32.4676 21.1496C32.4875 21.1697 32.4986 21.1969 32.4986 21.2253V21.5722C32.4986 21.6006 32.4875 21.6279 32.4676 21.648C32.4477 21.6681 32.4208 21.6794 32.3927 21.6794H27.7098C27.6959 21.6794 27.6821 21.6822 27.6693 21.6876C27.6564 21.6929 27.6448 21.7008 27.6349 21.7108C27.6251 21.7207 27.6173 21.7326 27.612 21.7456C27.6066 21.7586 27.6039 21.7725 27.6039 21.7866Z" fill="#707070"/>
<path d="M48.6739 25.6316L53.2046 30.3963C53.2457 30.4404 53.2367 30.469 53.1776 30.482C52.8328 30.558 52.5708 30.5229 52.3069 30.254C51.0728 28.999 49.849 27.7363 48.6354 26.4657C48.1885 25.998 47.8514 25.846 47.2369 25.9844C47.1753 25.9987 47.1445 26.037 47.1445 26.0993L47.1483 30.3573C47.1483 30.3945 47.1337 30.4302 47.1077 30.4565C47.0817 30.4828 47.0464 30.4976 47.0096 30.4976H46.5531C46.4773 30.4976 46.4394 30.4593 46.4394 30.3826L46.4375 21.2353C46.4375 21.1444 46.4824 21.1035 46.5723 21.1126L47.0404 21.1574C47.1123 21.1652 47.1483 21.2055 47.1483 21.2782V25.3276C47.1483 25.3809 47.1746 25.4108 47.2273 25.4173C47.6742 25.4796 48.0402 25.4699 48.3831 25.1211C49.6223 23.8557 50.8487 22.58 52.0623 21.2938C52.2588 21.0859 52.5323 21.034 52.8829 21.1379C52.9381 21.1535 52.9458 21.1821 52.906 21.2236C51.5769 22.6124 50.2477 23.9973 48.9186 25.3783C48.8473 25.4524 48.7741 25.4757 48.6874 25.5303C48.6425 25.5589 48.638 25.5927 48.6739 25.6316Z" fill="#707070"/>
<path d="M68.1052 26.7936C68.1186 31.0398 73.6953 30.997 73.7685 26.9768C73.7865 25.9959 73.7884 24.0706 73.7743 21.2008C73.7744 21.1811 73.7793 21.1618 73.7886 21.1445C73.7978 21.1272 73.811 21.1125 73.8272 21.1015C73.8433 21.0906 73.8618 21.0838 73.8811 21.0817C73.9004 21.0797 73.92 21.0824 73.938 21.0897C74.0587 21.1403 74.1807 21.1507 74.304 21.1209C74.4042 21.0949 74.4542 21.1345 74.4542 21.2397C74.453 23.0624 74.4536 24.8819 74.4562 26.6981C74.4639 31.8369 67.4945 31.8622 67.4425 26.9378C67.4233 25.0436 67.4175 23.1462 67.4252 21.2456C67.4252 21.178 67.4586 21.1442 67.5253 21.1442H67.9568C67.975 21.1442 67.9931 21.1479 68.0099 21.1549C68.0267 21.162 68.042 21.1723 68.0549 21.1853C68.0678 21.1984 68.078 21.2138 68.085 21.2309C68.0919 21.2479 68.0955 21.2661 68.0955 21.2845C68.0968 23.1228 68.1 24.9592 68.1052 26.7936Z" fill="#707070"/>
<path d="M81.0838 21.7573L81.0915 30.4194C81.0915 30.44 81.0834 30.4599 81.0689 30.4745C81.0545 30.4891 81.0349 30.4973 81.0144 30.4973H80.5271C80.5066 30.4973 80.4871 30.4891 80.4726 30.4745C80.4582 30.4599 80.45 30.44 80.45 30.4194L80.4057 21.7573C80.4057 21.7366 80.3976 21.7168 80.3832 21.7022C80.3687 21.6876 80.3491 21.6794 80.3287 21.6794H77.2235C77.2034 21.6794 77.1841 21.6714 77.1697 21.6572C77.1553 21.643 77.1469 21.6237 77.1464 21.6034L77.1406 21.1844C77.1404 21.174 77.1422 21.1636 77.146 21.154C77.1497 21.1443 77.1553 21.1355 77.1625 21.128C77.1697 21.1206 77.1783 21.1146 77.1878 21.1106C77.1972 21.1066 77.2074 21.1045 77.2177 21.1045L84.2853 21.1084C84.3054 21.1084 84.3247 21.1163 84.3391 21.1305C84.3535 21.1447 84.3618 21.1641 84.3623 21.1844L84.3681 21.5995C84.3684 21.6099 84.3666 21.6202 84.3628 21.6299C84.3591 21.6396 84.3534 21.6484 84.3462 21.6558C84.3391 21.6633 84.3305 21.6692 84.321 21.6732C84.3115 21.6773 84.3013 21.6794 84.2911 21.6794H81.1608C81.1404 21.6794 81.1208 21.6876 81.1063 21.7022C81.0919 21.7168 81.0838 21.7366 81.0838 21.7573Z" fill="#707070"/>
</g>
<defs>
<clipPath id="clip0_1818_14015">
<rect width="114" height="38" fill="white"/>
</clipPath>
</defs>
</svg>
