<svg width="101" height="42" viewBox="0 0 101 42" fill="none" xmlns="http://www.w3.org/2000/svg">
<g clip-path="url(#clip0_1818_14257)">
<mask id="mask0_1818_14257" style="mask-type:luminance" maskUnits="userSpaceOnUse" x="0" y="0" width="101" height="42">
<path d="M0.015625 0.152344H100.931V41.9962H0.015625V0.152344Z" fill="#707070"/>
</mask>
<g mask="url(#mask0_1818_14257)">
<path fill-rule="evenodd" clip-rule="evenodd" d="M10.5469 18.9747C8.37205 18.1706 7.18016 17.5452 7.18016 16.5624C7.18016 15.7283 7.86549 15.2519 9.0871 15.2519C11.3216 15.2519 13.6156 16.1157 15.1947 16.8898L16.0885 11.3803C14.8372 10.7846 12.2749 9.80177 8.72957 9.80177C6.22692 9.80177 4.14122 10.4569 2.6517 11.678C1.10229 12.9586 0.297861 14.8052 0.297861 17.0388C0.297861 21.0891 2.7708 22.8166 6.79292 24.2759C9.38496 25.1991 10.249 25.8544 10.249 26.8669C10.249 27.8498 9.41467 28.4155 7.89521 28.4155C6.01821 28.4155 2.91984 27.4924 0.893805 26.3012L0 31.8703C1.72795 32.8532 4.94565 33.8657 8.28267 33.8657C10.9341 33.8657 13.1389 33.2402 14.6287 32.049C16.297 30.7385 17.1611 28.8029 17.1611 26.3012C17.1611 22.1613 14.6287 20.434 10.5469 18.9747ZM31.7115 15.7283L32.6054 10.2485H27.8867V3.5962L21.5425 4.63977L20.6263 10.2485L18.395 10.6104L17.5597 15.7283H20.6172V26.4799C20.6172 29.2793 21.3322 31.2152 22.792 32.4064C24.0136 33.3892 25.7713 33.8657 28.2442 33.8657C30.151 33.8657 31.3129 33.5382 32.1173 33.3296V27.5221C31.6704 27.6414 30.6575 27.8498 29.9722 27.8498C28.5124 27.8498 27.8867 27.1053 27.8867 25.4077V15.7283H31.7115ZM45.8819 9.92841C43.7965 9.92841 42.128 11.0229 41.4726 12.9885L41.0257 10.2485H34.5605V33.4189H41.9492V18.379C42.8729 17.2472 44.1837 16.838 45.9713 16.838C46.3588 16.838 46.7757 16.838 47.2823 16.9274V10.1071C46.7757 9.98805 46.3288 9.92841 45.8819 9.92841ZM52.7942 7.9552C54.9393 7.9552 56.6673 6.1982 56.6673 4.05388C56.6673 1.87963 54.9393 0.152344 52.7942 0.152344C50.6191 0.152344 48.8912 1.87963 48.8912 4.05388C48.8912 6.1982 50.6191 7.9552 52.7942 7.9552ZM49.0699 10.2485H56.4885V33.4189H49.0699V10.2485ZM77.5115 12.3332C76.2005 10.6356 74.3831 9.80177 72.0593 9.80177C69.9141 9.80177 68.0371 10.6952 66.2792 12.5715L65.892 10.2485H59.3969V41.9962L66.7858 40.7753V33.3296C67.9178 33.687 69.0798 33.8657 70.1226 33.8657C71.9699 33.8657 74.6513 33.3892 76.7368 31.1259C78.7328 28.9516 79.746 25.5864 79.746 21.1488C79.746 17.2175 79.001 14.2394 77.5115 12.3332ZM71.3739 26.6286C70.778 27.7604 69.8545 28.3561 68.7819 28.3561C68.0371 28.3561 67.3815 28.2071 66.7858 27.9094V16.8898C68.0371 15.5796 69.1691 15.4306 69.5863 15.4306C71.4633 15.4306 72.3868 17.4559 72.3868 21.4168C72.3868 23.6802 72.0592 25.4374 71.3739 26.6286ZM100.929 21.6252C100.929 17.9323 100.125 15.0136 98.5456 12.9586C96.9368 10.8739 94.5235 9.80177 91.4548 9.80177C85.1683 9.80177 81.2655 14.4478 81.2655 21.8932C81.2655 26.0628 82.3081 29.19 84.3638 31.1853C86.2111 32.9722 88.8628 33.8657 92.289 33.8657C95.447 33.8657 98.3669 33.1212 100.214 31.9001L99.4097 26.8372C97.5921 27.82 95.477 28.3561 93.0934 28.3561C91.6633 28.3561 90.6801 28.0582 89.9651 27.4327C89.1904 26.7776 88.7435 25.7054 88.5947 24.1866H100.84C100.87 23.8292 100.929 22.1613 100.929 21.6252ZM88.535 19.6596C88.7435 16.3538 89.6373 14.8052 91.3355 14.8052C93.004 14.8052 93.8681 16.3837 93.9872 19.6596H88.535Z" fill="#707070"/>
</g>
</g>
<defs>
<clipPath id="clip0_1818_14257">
<rect width="101" height="42" fill="white"/>
</clipPath>
</defs>
</svg>
