<svg width="140" height="35" viewBox="0 0 140 35" fill="none" xmlns="http://www.w3.org/2000/svg">
<g clip-path="url(#clip0_1818_14043)">
<path d="M36.7936 12.4043H50.9691V15.0966H45.3953V30.2314H42.3303V15.0966H36.7812V12.4043H36.7936ZM50.3635 17.3234H52.9836V19.8144H53.033C53.1195 19.4622 53.2802 19.1225 53.515 18.7954C53.7498 18.4683 54.0341 18.1538 54.3678 17.8896C54.7014 17.6128 55.0722 17.3989 55.48 17.2228C55.8879 17.0592 56.3081 16.9712 56.7283 16.9712C57.0496 16.9712 57.2844 16.9837 57.408 16.9963C57.5316 17.0089 57.6552 17.0341 57.7911 17.0466V19.7893C57.5934 19.7515 57.3957 19.7264 57.1856 19.7012C56.9755 19.676 56.7777 19.6635 56.58 19.6635C56.1103 19.6635 55.6654 19.7641 55.2452 19.9528C54.825 20.1415 54.4666 20.4309 54.1577 20.7957C53.8487 21.1732 53.6015 21.6261 53.4161 22.1796C53.2308 22.7332 53.1442 23.3622 53.1442 24.0793V30.2188H50.3512V17.3234H50.3635ZM70.6319 30.2314H67.8882V28.4323H67.8388C67.4928 29.0865 66.986 29.6024 66.3063 29.9924C65.6266 30.3824 64.9345 30.5837 64.23 30.5837C62.5616 30.5837 61.3505 30.1685 60.6089 29.3256C59.8674 28.4827 59.4966 27.212 59.4966 25.5136V17.3234H62.2897V25.2368C62.2897 26.3691 62.4998 27.1742 62.9324 27.6397C63.3526 28.1052 63.9582 28.3443 64.7244 28.3443C65.3176 28.3443 65.7996 28.2562 66.1951 28.0675C66.5906 27.8788 66.9119 27.6397 67.1467 27.3252C67.3939 27.0233 67.5669 26.6458 67.6781 26.2181C67.7894 25.7903 67.8388 25.3249 67.8388 24.8216V17.336H70.6319V30.2314ZM75.39 26.0923C75.4765 26.9226 75.7855 27.5013 76.3169 27.841C76.8607 28.1681 77.5034 28.3443 78.2572 28.3443C78.5168 28.3443 78.8134 28.3191 79.1471 28.2814C79.4808 28.2436 79.8021 28.1556 80.0863 28.0423C80.3829 27.9291 80.6178 27.753 80.8155 27.5265C81.0009 27.3001 81.0874 27.0107 81.075 26.6458C81.0627 26.281 80.9267 25.9791 80.6796 25.7526C80.4324 25.5136 80.1234 25.3374 79.7403 25.1865C79.3572 25.0481 78.9246 24.9223 78.4303 24.8216C77.9359 24.721 77.4416 24.6077 76.9348 24.4945C76.4158 24.3813 75.9091 24.2303 75.4271 24.0668C74.9451 23.9032 74.5125 23.6768 74.1294 23.3874C73.7463 23.1106 73.4373 22.7458 73.2149 22.3054C72.98 21.8651 72.8688 21.3241 72.8688 20.6699C72.8688 19.9654 73.0418 19.3867 73.3755 18.9086C73.7092 18.4305 74.1418 18.0531 74.6485 17.7638C75.1675 17.4744 75.7361 17.2731 76.3664 17.1473C76.9966 17.0341 77.6022 16.9712 78.1707 16.9712C78.8257 16.9712 79.456 17.0466 80.0493 17.185C80.6425 17.3234 81.1863 17.5499 81.6683 17.877C82.1502 18.1915 82.5457 18.6067 82.8671 19.1099C83.1884 19.6131 83.3861 20.2296 83.4726 20.9467H80.556C80.42 20.2673 80.1234 19.8019 79.6414 19.5754C79.1594 19.3364 78.6033 19.2231 77.9853 19.2231C77.7876 19.2231 77.5528 19.2357 77.2809 19.2735C77.009 19.3112 76.7618 19.3741 76.5146 19.4622C76.2798 19.5502 76.0821 19.6886 75.9091 19.8648C75.7484 20.0409 75.6619 20.2673 75.6619 20.5567C75.6619 20.909 75.7855 21.1857 76.0203 21.3996C76.2551 21.6135 76.5641 21.7896 76.9472 21.9406C77.3303 22.079 77.7629 22.2048 78.2572 22.3054C78.7516 22.4061 79.2583 22.5193 79.7774 22.6325C80.2841 22.7458 80.7784 22.8967 81.2728 23.0603C81.7671 23.2239 82.1997 23.4503 82.5828 23.7397C82.9659 24.029 83.2749 24.3813 83.5097 24.809C83.7445 25.2368 83.8681 25.7778 83.8681 26.4068C83.8681 27.1742 83.6951 27.8159 83.349 28.3568C83.003 28.8852 82.5581 29.3256 82.0143 29.6527C81.4705 29.9798 80.8526 30.2314 80.1852 30.3824C79.5178 30.5333 78.8505 30.6088 78.1954 30.6088C77.3921 30.6088 76.6506 30.5208 75.9709 30.332C75.2911 30.1433 74.6979 29.8666 74.2036 29.5017C73.7092 29.1243 73.3137 28.6588 73.0295 28.1052C72.7452 27.5517 72.5969 26.8849 72.5722 26.1175H75.39V26.0923ZM84.6096 17.3234H86.723V13.4485H89.5161V17.3234H92.0373V19.4496H89.5161V26.3439C89.5161 26.6458 89.5284 26.8975 89.5531 27.1239C89.5779 27.3378 89.6397 27.5265 89.7262 27.6775C89.8127 27.8285 89.9486 27.9417 90.134 28.0172C90.3194 28.0926 90.5542 28.1304 90.8755 28.1304C91.0733 28.1304 91.271 28.1304 91.4687 28.1178C91.6665 28.1052 91.8642 28.0801 92.062 28.0297V30.2314C91.753 30.2691 91.444 30.2943 91.1598 30.332C90.8632 30.3698 90.5666 30.3824 90.2576 30.3824C89.5161 30.3824 88.9228 30.3069 88.4779 30.1685C88.033 30.0301 87.6746 29.8162 87.4274 29.5395C87.1679 29.2627 87.0072 28.923 86.9084 28.5078C86.8219 28.0926 86.7601 27.6146 86.7477 27.0862V19.4748H84.6344V17.3234H84.6096ZM94.0146 17.3234H96.6594V19.0722H96.7089C97.1043 18.3173 97.6481 17.7889 98.3526 17.4618C99.057 17.1347 99.8109 16.9712 100.639 16.9712C101.64 16.9712 102.505 17.1473 103.247 17.5121C103.988 17.8644 104.606 18.3551 105.1 18.9841C105.595 19.6131 105.953 20.3428 106.2 21.1732C106.448 22.0035 106.571 22.8967 106.571 23.8403C106.571 24.7084 106.46 25.5513 106.237 26.3565C106.015 27.1742 105.681 27.8914 105.236 28.5204C104.791 29.1494 104.223 29.6401 103.531 30.0175C102.839 30.395 102.035 30.5837 101.096 30.5837C100.688 30.5837 100.281 30.5459 99.8727 30.4704C99.4649 30.395 99.0694 30.2691 98.6986 30.1056C98.3279 29.942 97.9695 29.7282 97.6605 29.464C97.3392 29.1998 97.0796 28.8978 96.8572 28.5581H96.8077V34.9996H94.0146V17.3234ZM103.778 23.79C103.778 23.2113 103.704 22.6451 103.556 22.0916C103.407 21.538 103.185 21.0599 102.888 20.6322C102.592 20.2044 102.221 19.8648 101.788 19.6131C101.343 19.3615 100.837 19.2231 100.268 19.2231C99.0941 19.2231 98.2043 19.6383 97.611 20.4686C97.0178 21.299 96.7212 22.4061 96.7212 23.79C96.7212 24.4442 96.7954 25.0481 96.956 25.6016C97.1167 26.1552 97.3392 26.6333 97.6605 27.0359C97.9695 27.4384 98.3402 27.753 98.7728 27.9794C99.2053 28.2185 99.712 28.3317 100.281 28.3317C100.923 28.3317 101.455 28.1933 101.9 27.9291C102.344 27.6649 102.703 27.3126 102.987 26.8975C103.271 26.4697 103.481 25.9916 103.605 25.4507C103.716 24.9097 103.778 24.3561 103.778 23.79ZM108.709 12.4043H111.502V15.0966H108.709V12.4043ZM108.709 17.3234H111.502V30.2314H108.709V17.3234ZM113.999 12.4043H116.792V30.2314H113.999V12.4043ZM125.356 30.5837C124.343 30.5837 123.441 30.4075 122.65 30.0678C121.859 29.7282 121.192 29.2501 120.635 28.6588C120.092 28.0549 119.671 27.3378 119.387 26.5075C119.103 25.6771 118.955 24.7587 118.955 23.7648C118.955 22.7835 119.103 21.8777 119.387 21.0474C119.671 20.217 120.092 19.4999 120.635 18.896C121.179 18.2921 121.859 17.8267 122.65 17.487C123.441 17.1473 124.343 16.9712 125.356 16.9712C126.37 16.9712 127.272 17.1473 128.063 17.487C128.854 17.8267 129.521 18.3047 130.078 18.896C130.621 19.4999 131.041 20.217 131.326 21.0474C131.61 21.8777 131.758 22.7835 131.758 23.7648C131.758 24.7587 131.61 25.6771 131.326 26.5075C131.041 27.3378 130.621 28.0549 130.078 28.6588C129.534 29.2627 128.854 29.7282 128.063 30.0678C127.272 30.4075 126.37 30.5837 125.356 30.5837ZM125.356 28.3317C125.974 28.3317 126.518 28.1933 126.975 27.9291C127.433 27.6649 127.803 27.3126 128.1 26.8849C128.397 26.4571 128.607 25.9665 128.755 25.4255C128.891 24.8845 128.965 24.331 128.965 23.7648C128.965 23.2113 128.891 22.6703 128.755 22.1167C128.619 21.5632 128.397 21.0851 128.1 20.6574C127.803 20.2296 127.433 19.8899 126.975 19.6257C126.518 19.3615 125.974 19.2231 125.356 19.2231C124.739 19.2231 124.195 19.3615 123.737 19.6257C123.28 19.8899 122.909 20.2422 122.613 20.6574C122.316 21.0851 122.106 21.5632 121.958 22.1167C121.822 22.6703 121.748 23.2113 121.748 23.7648C121.748 24.331 121.822 24.8845 121.958 25.4255C122.094 25.9665 122.316 26.4571 122.613 26.8849C122.909 27.3126 123.28 27.6649 123.737 27.9291C124.195 28.2059 124.739 28.3317 125.356 28.3317ZM132.574 17.3234H134.687V13.4485H137.48V17.3234H140.002V19.4496H137.48V26.3439C137.48 26.6458 137.493 26.8975 137.517 27.1239C137.542 27.3378 137.604 27.5265 137.69 27.6775C137.777 27.8285 137.913 27.9417 138.098 28.0172C138.284 28.0926 138.519 28.1304 138.84 28.1304C139.038 28.1304 139.235 28.1304 139.433 28.1178C139.631 28.1052 139.829 28.0801 140.026 28.0297V30.2314C139.717 30.2691 139.408 30.2943 139.124 30.332C138.827 30.3698 138.531 30.3824 138.222 30.3824C137.48 30.3824 136.887 30.3069 136.442 30.1685C135.997 30.0301 135.639 29.8162 135.392 29.5395C135.132 29.2627 134.972 28.923 134.873 28.5078C134.786 28.0926 134.724 27.6146 134.712 27.0862V19.4748H132.599V17.3234H132.574Z" fill="#707070"/>
<path d="M33.5293 12.4047H20.7256L16.7708 0L12.8037 12.4047L0 12.3922L10.369 20.0665L6.40184 32.4587L16.7708 24.7969L27.1275 32.4587L23.1727 20.0665L33.5293 12.4047Z" fill="#707070"/>
<path d="M24.0651 22.8719L23.1753 20.0664L16.7734 24.7968L24.0651 22.8719Z" fill="#005128"/>
</g>
<defs>
<clipPath id="clip0_1818_14043">
<rect width="140" height="35" fill="white"/>
</clipPath>
</defs>
</svg>
