<svg width="20" height="20" viewBox="0 0 20 20" fill="none" xmlns="http://www.w3.org/2000/svg">
<path d="M19.6734 19.9932C19.2894 19.975 19.0375 19.9943 18.7266 19.9676C18.5633 19.9534 18.4535 19.9464 18.3971 19.9464C17.2398 19.9461 16.0824 19.9463 14.925 19.9468C14.8078 19.9468 14.6734 19.9887 14.5622 19.9846C14.3323 19.9762 14.087 19.9801 13.8266 19.9962L9.02355 13.1058C9.01937 13.0998 9.01417 13.0948 9.00823 13.091C9.0023 13.0873 8.99575 13.0849 8.98898 13.0839C8.9822 13.083 8.97534 13.0836 8.96878 13.0856C8.96222 13.0876 8.95611 13.0911 8.95079 13.0958C8.87152 13.1654 8.79506 13.2465 8.7214 13.3391C6.97432 15.5322 5.22758 17.7256 3.48117 19.9193C3.43783 19.9737 3.39595 19.9975 3.35553 19.9906C3.02172 19.9586 2.60438 19.978 2.35747 19.9735C1.87871 19.9648 1.39838 19.9671 0.91647 19.9802C0.764892 19.9948 0.609047 19.997 0.448936 19.9869C0.430072 19.9856 0.417834 19.9822 0.41222 19.9765C0.403339 19.9672 0.398065 19.9544 0.3975 19.9409C0.396935 19.9274 0.401123 19.9142 0.409189 19.904C2.74394 16.968 5.07768 14.0315 7.41042 11.0945C7.48924 10.995 7.4953 10.8972 7.42861 10.8011C4.95552 7.2359 2.48413 3.67651 0.0144116 0.122942C0.00652095 0.111721 0.0016485 0.0982804 0.000350174 0.0841532C-0.000948156 0.0700259 0.00137979 0.0557805 0.00706838 0.0430415C0.012757 0.0303025 0.0215777 0.0195824 0.0325242 0.0121036C0.0434706 0.00462479 0.0561023 0.000688447 0.0689796 0.000743013C2.05477 0.000743013 4.03954 0.001238 6.02331 0.00222847C6.10976 0.00222847 6.19004 0.00643841 6.26415 0.0148574C6.27646 0.0162532 6.28839 0.0204372 6.29917 0.027148C6.30995 0.0338588 6.31936 0.0429514 6.3268 0.0538568C7.72851 2.09299 9.12988 4.13287 10.5309 6.17349C10.5803 6.24555 10.6248 6.30299 10.6643 6.34583C10.6735 6.35574 10.6832 6.35636 10.6933 6.34769C10.7548 6.29594 10.81 6.23936 10.859 6.17795C12.4626 4.1606 14.065 2.14227 15.6664 0.122942C15.7288 0.0441997 15.8014 0.00470513 15.8843 0.00445751C16.8189 0.00198133 17.7569 0.000495236 18.6983 0C18.7214 0 18.7387 0.011019 18.7502 0.033057C18.7663 0.0637616 18.7603 0.0970664 18.732 0.132971C16.5596 2.87807 14.3846 5.62068 12.207 8.36082C12.1428 8.44155 12.1371 8.52017 12.1898 8.59668C14.7916 12.3808 17.3931 16.1649 19.9944 19.949C20.0041 19.9628 20.0012 19.9718 19.9857 19.9757C19.888 20.0005 19.7839 20.0063 19.6734 19.9932ZM14.7151 17.9656L16.306 17.9763C16.3159 17.9763 16.3194 17.971 16.3165 17.9604C16.29 17.8687 16.2503 17.7843 16.1976 17.707C12.6113 12.4803 9.02489 7.25372 5.43822 2.02725C5.40251 1.97488 5.36546 1.92399 5.3055 1.92399C4.45419 1.92102 3.9194 1.92102 3.70113 1.92399C3.67284 1.92449 3.63533 1.93452 3.58863 1.95408C3.57785 1.95878 3.5756 1.96646 3.58189 1.97711C3.61378 2.03134 3.64746 2.08408 3.68294 2.13533C7.31498 7.37246 10.9483 12.6083 14.5828 17.843C14.6034 17.8729 14.6356 17.9089 14.6794 17.9507C14.6898 17.9606 14.7017 17.9656 14.7151 17.9656Z" fill="white"/>
</svg>
